HIERARCHY
ROOT hip
{
  OFFSET 7.23169 77.0338 121.862
  CHANNELS 6 Xposition Yposition Zposition Zrotation Xrotation Yrotation
  JOINT abdomen
  {
    OFFSET 0 20.6881 -0.73152
    CHANNELS 3 Zrotation Xrotation Yrotation
    JOINT chest
    {
      OFFSET 0 11.7043 -0.48768
      CHANNELS 3 Zrotation Xrotation Yrotation
      JOINT neck
      {
        OFFSET 0 22.1894 -2.19456
        CHANNELS 3 Zrotation Xrotation Yrotation
        JOINT head
        {
          OFFSET -0.24384 7.07133 1.2192
          CHANNELS 3 Zrotation Xrotation Yrotation
          JOINT leftEye
          {
            OFFSET 4.14528 8.04674 8.04672
            CHANNELS 3 Zrotation Xrotation Yrotation
            End Site
            {
              OFFSET 1 0 0
            }
          }
          JOINT rightEye
          {
            OFFSET -3.6576 8.04674 8.04672
            CHANNELS 3 Zrotation Xrotation Yrotation
            End Site
            {
              OFFSET 1 0 0
            }
          }
        }
      }
      JOINT rCollar
      {
        OFFSET -2.68224 19.2634 -4.8768
        CHANNELS 3 Zrotation Xrotation Yrotation
        JOINT rShldr
        {
          OFFSET -8.77824 -1.95073 1.46304
          CHANNELS 3 Zrotation Xrotation Yrotation
          JOINT rForeArm
          {
            OFFSET -28.1742 -1.7115 0.48768
            CHANNELS 3 Zrotation Xrotation Yrotation
            JOINT rHand
            {
              OFFSET -22.5879 0.773209 7.07136
              CHANNELS 3 Zrotation Xrotation Yrotation
              JOINT rThumb1
              {
                OFFSET -1.2192 -0.487915 3.41376
                CHANNELS 3 Zrotation Xrotation Yrotation
                JOINT rThumb2
                {
                  OFFSET -3.37035 -0.52449 3.41376
                  CHANNELS 3 Zrotation Xrotation Yrotation
                  End Site
                  {
                    OFFSET -1.78271 -1.18214 1.43049
                  }
                }
              }
              JOINT rIndex1
              {
                OFFSET -7.75947 0.938293 5.60832
                CHANNELS 3 Zrotation Xrotation Yrotation
                JOINT rIndex2
                {
                  OFFSET -2.54057 -0.884171 1.56538
                  CHANNELS 3 Zrotation Xrotation Yrotation
                  End Site
                  {
                    OFFSET -1.62519 -0.234802 1.16502
                  }
                }
              }
              JOINT rMid1
              {
                OFFSET -8.24714 1.18213 3.41376
                CHANNELS 3 Zrotation Xrotation Yrotation
                JOINT rMid2
                {
                  OFFSET -3.10165 -0.590103 1.0647
                  CHANNELS 3 Zrotation Xrotation Yrotation
                  End Site
                  {
                    OFFSET -2.48547 -0.328903 0.83742
                  }
                }
              }
              JOINT rRing1
              {
                OFFSET -8.82822 0.546677 1.51678
                CHANNELS 3 Zrotation Xrotation Yrotation
                JOINT rRing2
                {
                  OFFSET -2.60934 -0.819778 -0.0198488
                  CHANNELS 3 Zrotation Xrotation Yrotation
                  End Site
                  {
                    OFFSET -2.33842 -0.294052 0.168128
                  }
                }
              }
              JOINT rPinky1
              {
                OFFSET -8.27202 -0.0477905 -0.4584
                CHANNELS 3 Zrotation Xrotation Yrotation
                JOINT rPinky2
                {
                  OFFSET -1.82734 -0.647385 -0.700984
                  CHANNELS 3 Zrotation Xrotation Yrotation
                  End Site
                  {
                    OFFSET -1.69225 -0.51767 -0.607171
                  }
                }
              }
            }
          }
        }
      }
      JOINT lCollar
      {
        OFFSET 2.68224 19.2634 -4.8768
        CHANNELS 3 Zrotation Xrotation Yrotation
        JOINT lShldr
        {
          OFFSET 8.77824 -1.95073 1.46304
          CHANNELS 3 Zrotation Xrotation Yrotation
          JOINT lForeArm
          {
            OFFSET 28.1742 -1.7115 0.48768
            CHANNELS 3 Zrotation Xrotation Yrotation
            JOINT lHand
            {
              OFFSET 22.5879 0.773209 7.07136
              CHANNELS 3 Zrotation Xrotation Yrotation
              JOINT lThumb1
              {
                OFFSET 1.2192 -0.487915 3.41376
                CHANNELS 3 Zrotation Xrotation Yrotation
                JOINT lThumb2
                {
                  OFFSET 3.37035 -0.52449 3.41376
                  CHANNELS 3 Zrotation Xrotation Yrotation
                  End Site
                  {
                    OFFSET 1.78271 -1.18214 1.43049
                  }
                }
              }
              JOINT lIndex1
              {
                OFFSET 7.75947 0.938293 5.60832
                CHANNELS 3 Zrotation Xrotation Yrotation
                JOINT lIndex2
                {
                  OFFSET 2.54057 -0.884171 1.56538
                  CHANNELS 3 Zrotation Xrotation Yrotation
                  End Site
                  {
                    OFFSET 1.62519 -0.234802 1.16502
                  }
                }
              }
              JOINT lMid1
              {
                OFFSET 8.24714 1.18213 3.41376
                CHANNELS 3 Zrotation Xrotation Yrotation
                JOINT lMid2
                {
                  OFFSET 3.10165 -0.590103 1.0647
                  CHANNELS 3 Zrotation Xrotation Yrotation
                  End Site
                  {
                    OFFSET 2.48547 -0.328903 0.83742
                  }
                }
              }
              JOINT lRing1
              {
                OFFSET 8.82822 0.546677 1.51678
                CHANNELS 3 Zrotation Xrotation Yrotation
                JOINT lRing2
                {
                  OFFSET 2.60934 -0.819778 -0.0198488
                  CHANNELS 3 Zrotation Xrotation Yrotation
                  End Site
                  {
                    OFFSET 2.33842 -0.294052 0.168128
                  }
                }
              }
              JOINT lPinky1
              {
                OFFSET 8.27202 -0.0477905 -0.4584
                CHANNELS 3 Zrotation Xrotation Yrotation
                JOINT lPinky2
                {
                  OFFSET 1.82734 -0.647385 -0.700984
                  CHANNELS 3 Zrotation Xrotation Yrotation
                  End Site
                  {
                    OFFSET 1.69225 -0.51767 -0.607171
                  }
                }
              }
            }
          }
        }
      }
    }
  }
  JOINT rButtock
  {
    OFFSET -8.77824 4.35084 1.2192
    CHANNELS 3 Zrotation Xrotation Yrotation
    JOINT rThigh
    {
      OFFSET 0 -1.70687 -2.19456
      CHANNELS 3 Zrotation Xrotation Yrotation
      JOINT rShin
      {
        OFFSET 0 -36.8199 0.73152
        CHANNELS 3 Zrotation Xrotation Yrotation
        JOINT rFoot
        {
          OFFSET 0.73152 -45.1104 -5.12064
          CHANNELS 3 Zrotation Xrotation Yrotation
          End Site
          {
            OFFSET -1.1221 -3.69964 12.103
          }
        }
      }
    }
  }
  JOINT lButtock
  {
    OFFSET 8.77824 4.35084 1.2192
    CHANNELS 3 Zrotation Xrotation Yrotation
    JOINT lThigh
    {
      OFFSET 0 -1.70687 -2.19456
      CHANNELS 3 Zrotation Xrotation Yrotation
      JOINT lShin
      {
        OFFSET 0 -36.8199 0.73152
        CHANNELS 3 Zrotation Xrotation Yrotation
        JOINT lFoot
        {
          OFFSET -0.73152 -45.1104 -5.12064
          CHANNELS 3 Zrotation Xrotation Yrotation
          End Site
          {
            OFFSET 1.1221 -3.69964 12.103
          }
        }
      }
    }
  }
}
MOTION
Frames:	8
Frame Time:	0.00833333
26.9758 83.0696 107.476 2.49979 0.00856464 -0.0474184 -3.29164 -0.00200221 -0.0897131 -0.9105 0.0108252 -0.157567 5.6478e-014 0 -5.96354e-016 1.69402e-013 3.18055e-015 -1.84186e-015 -0 0 0 -0 0 0 2.83262e-014 -3.45544e-017 -4.96962e-017 5.94928e-013 -9.13167e-016 -4.17448e-015 1.01576e-011 -3.07739e-012 -2.19458e-013 1.16596e-010 2.93046e-012 -1.10365e-012 2.74948e-010 -3.18709e-013 -2.88476e-012 4.74807e-010 -5.50236e-013 -4.99347e-012 2.74953e-010 -3.19248e-013 -2.8943e-012 7.73091 5.47488 0.417314 2.74947e-010 -3.18751e-013 -2.88158e-012 2.90554 0.965183 0.102902 2.74955e-010 -3.18552e-013 -2.88635e-012 10.2786 0.731801 0.0259123 2.74943e-010 -3.18453e-013 -2.87204e-012 2.22167 -0.733487 -0.20892 2.81305e-014 -3.49426e-017 -4.96962e-016 5.91769e-013 -1.11816e-015 -5.36719e-015 1.02179e-011 3.00821e-012 -2.25819e-013 1.16497e-010 -3.16336e-012 -1.08457e-012 2.74878e-010 -3.32122e-013 -2.87522e-012 4.74714e-010 -5.725e-013 -4.9728e-012 2.74873e-010 -3.33958e-013 -2.87204e-012 -7.73091 5.47488 -0.417314 2.74879e-010 -3.32368e-013 -2.87522e-012 -2.90554 0.965183 -0.102902 2.74876e-010 -3.32169e-013 -2.87443e-012 -10.2786 0.731801 -0.0259123 2.7489e-010 -3.27597e-013 -2.88158e-012 -2.22167 -0.733487 0.20892 -2.03217e-016 0 -3.88251e-019 -2.14023 -1.93291 0.0183624 -0.00781088 -2.07877 -0.0636627 -0.356441 4.00069 0.117353 2.03217e-016 0 3.88251e-019 -2.88049 -9.67721 0.338957 -0.0100223 11.9464 -0.261574 0.458266 -2.28008 -0.00593473 
30.7321 78.5348 101.918 2.77831 6.62595 8.62856 -5.12895 -5.77287 -3.52513 -0.383979 0.210702 -0.984978 3.42775 -1.31463 3.09284 -4.19721 -0.828187 4.77816 -0 0 0 -0 0 0 9.76832e-014 -1.16439e-013 3.2193e-014 18.7675 -5.19097 -6.14998 -3.74321 -1.6157 5.93591 0.0433069 -4.62322 -0.64216 1.86152e-010 -5.09187e-010 9.48401e-011 3.23002e-010 -8.83492e-010 1.61386e-010 1.86158e-010 -5.09186e-010 9.48268e-011 7.73091 5.47488 0.417314 1.86151e-010 -5.09186e-010 9.48424e-011 2.90554 0.965183 0.102902 1.8616e-010 -5.09186e-010 9.4837e-011 10.2786 0.731801 0.0259123 1.86151e-010 -5.09187e-010 9.48481e-011 2.22167 -0.733487 -0.20892 9.75313e-014 -1.16438e-013 3.17978e-014 -11.8815 -4.64159 -0.744022 6.54799 -3.65365 -9.38351 -0.348393 -13.1604 1.67831 -2.37742e-010 -7.15773e-011 2.62343e-010 -4.19247e-010 -1.16695e-010 4.34963e-010 -2.37748e-010 -7.1578e-011 2.6235e-010 -7.73091 5.47488 -0.417314 -2.37742e-010 -7.15773e-011 2.62342e-010 -2.90554 0.965183 -0.102902 -2.37745e-010 -7.15774e-011 2.62344e-010 -10.2786 0.731801 -0.0259123 -2.37731e-010 -7.15738e-011 2.62336e-010 -2.22167 -0.733487 0.20892 -2.03217e-016 0 -3.88251e-019 -3.77549 -13.0148 0.785938 0.077676 14.7953 0.198163 -1.03554 -0.0683571 -5.99881 2.03217e-016 0 3.88251e-019 -5.94463 -18.6933 -0.878072 0.0265253 18.493 -0.225702 1.04321 -4.77996 7.33767 
30.5189 78.7812 101.812 0.870635 13.1145 18.2669 -7.85123 -11.7816 -7.30341 0.182495 0.422423 -1.8677 7.22335 -2.68587 6.38226 -8.49545 -1.69629 9.85422 -0 0 0 -0 0 0 1.72572e-013 -2.53268e-013 6.04616e-014 37.3826 -10.5139 -12.8397 -7.32636 -3.25781 12.2074 -0.0249503 -9.48543 -1.33182 1.16795e-010 -1.13375e-009 1.94174e-010 2.05325e-010 -1.96714e-009 3.30402e-010 1.16801e-010 -1.13375e-009 1.94157e-010 7.73091 5.47488 0.417314 1.16795e-010 -1.13375e-009 1.94176e-010 2.90554 0.965183 0.102902 1.16804e-010 -1.13375e-009 1.9417e-010 10.2786 0.731801 0.0259123 1.16798e-010 -1.13375e-009 1.94177e-010 2.22167 -0.733487 -0.20892 1.72467e-013 -2.53266e-013 6.01199e-014 -24.5623 -9.59423 -1.51887 12.188 -7.19193 -19.4267 0.214349 -27.0115 3.77173 -8.52851e-010 -1.80876e-010 6.09547e-010 -1.49303e-009 -2.97297e-010 1.0124e-009 -8.52858e-010 -1.80876e-010 6.09557e-010 -7.73091 5.47488 -0.417314 -8.52851e-010 -1.80876e-010 6.09545e-010 -2.90554 0.965183 -0.102902 -8.52855e-010 -1.80877e-010 6.09548e-010 -10.2786 0.731801 -0.0259123 -8.52841e-010 -1.80874e-010 6.09539e-010 -2.22167 -0.733487 0.20892 -2.03217e-016 0 -3.88251e-019 -5.13111 -24.7336 1.79905 -0.0255492 32.6657 0.548646 -2.68692 -4.27151 -12.4874 2.03217e-016 0 3.88251e-019 -9.67271 -28.2148 -2.36804 0.0568998 25.4529 -0.188961 2.34618 -7.23973 15.1106 
30.3166 79.0547 101.684 -2.70029 18.01 27.2426 -10.9483 -17.0567 -10.8237 0.686376 0.609901 -2.63993 10.7078 -3.89791 9.29776 -12.1817 -2.41557 14.346 -0 0 0 -0 0 0 2.36397e-013 -3.49247e-013 9.66784e-014 52.9273 -14.8452 -19.0324 -10.2405 -4.63938 17.8611 -0.18885 -13.8626 -1.97784 8.56069e-012 -1.52692e-009 2.9029e-010 1.93923e-011 -2.64937e-009 4.94144e-010 8.56688e-012 -1.52692e-009 2.90269e-010 7.73091 5.47488 0.417314 8.56085e-012 -1.52692e-009 2.9029e-010 2.90554 0.965183 0.102902 8.57003e-012 -1.52692e-009 2.90284e-010 10.2786 0.731801 0.0259123 8.56655e-012 -1.52692e-009 2.90288e-010 2.22167 -0.733487 -0.20892 2.36333e-013 -3.49245e-013 9.63873e-014 -36.0155 -13.9152 -2.29204 16.1711 -9.7866 -28.5454 1.83766 -39.3249 6.34295 -1.26298e-009 -2.14068e-010 7.92779e-010 -2.20717e-009 -3.48941e-010 1.31484e-009 -1.26299e-009 -2.14066e-010 7.92793e-010 -7.73091 5.47488 -0.417314 -1.26298e-009 -2.14067e-010 7.92776e-010 -2.90554 0.965183 -0.102902 -1.26299e-009 -2.14068e-010 7.9278e-010 -10.2786 0.731801 -0.0259123 -1.26297e-009 -2.14066e-010 7.9277e-010 -2.22167 -0.733487 0.20892 -2.03217e-016 0 -3.88251e-019 -5.98304 -35.1507 2.76507 -0.398798 48.5389 1.06031 -4.9722 -7.79299 -18.4066 2.03217e-016 0 3.88251e-019 -13.4728 -36.6662 -3.94501 0.0732725 31.5862 -0.152987 4.09956 -9.17378 22.2473 
30.1012 79.3404 101.59 -6.05397 20.7873 33.3282 -13.4294 -20.7499 -13.2922 1.02122 0.737307 -3.13581 13.1152 -4.75629 11.2603 -14.6373 -2.83211 17.3654 -0 0 0 -0 0 0 2.72562e-013 -3.43104e-013 1.52766e-013 63.2503 -17.415 -23.4031 -12.1607 -5.56193 21.9213 -0.36961 -17.0336 -2.46779 -1.96868e-010 -1.34161e-009 3.78359e-010 -3.37178e-010 -2.3281e-009 6.44696e-010 -1.96862e-010 -1.3416e-009 3.78337e-010 7.73091 5.47488 0.417314 -1.96868e-010 -1.34161e-009 3.78359e-010 2.90554 0.965183 0.102902 -1.96859e-010 -1.34161e-009 3.78352e-010 10.2786 0.731801 0.0259123 -1.96861e-010 -1.34161e-009 3.78356e-010 2.22167 -0.733487 -0.20892 2.72524e-013 -3.43101e-013 1.52518e-013 -44.1497 -16.6647 -3.00596 18.4221 -11.1478 -34.9742 3.98887 -47.9331 8.95857 -1.16067e-009 -5.69892e-011 5.66081e-010 -2.02219e-009 -7.81939e-011 9.29779e-010 -1.16068e-009 -5.69872e-011 5.66097e-010 -7.73091 5.47488 -0.417314 -1.16067e-009 -5.69886e-011 5.66078e-010 -2.90554 0.965183 -0.102902 -1.16067e-009 -5.69895e-011 5.66082e-010 -10.2786 0.731801 -0.0259123 -1.16066e-009 -5.69884e-011 5.66072e-010 -2.22167 -0.733487 0.20892 -2.03217e-016 0 -3.88251e-019 -6.58535 -42.3523 3.08997 -0.988907 59.4229 1.7043 -7.03483 -10.036 -22.6877 2.03217e-016 0 3.88251e-019 -16.3437 -42.5026 -5.15196 0.0725199 35.6527 -0.12042 5.69566 -10.3188 27.6055 
29.8751 79.5707 101.477 -7.30425 21.8725 34.7189 -14.2904 -22.4131 -13.9955 1.10969 0.780623 -3.24514 13.8949 -5.15296 11.8793 -15.513 -2.85084 18.3192 -0 0 0 -0 0 0 2.78385e-013 -1.41807e-013 2.61164e-013 67.3213 -18.0283 -24.8728 -12.9789 -5.97594 23.7237 -0.469203 -18.5321 -2.70645 -7.55699e-010 -1.99871e-011 4.69034e-010 -1.30957e-009 -3.63234e-011 7.98808e-010 -7.55694e-010 -1.99829e-011 4.69013e-010 7.73091 5.47488 0.417314 -7.55698e-010 -1.99845e-011 4.69034e-010 2.90554 0.965183 0.102902 -7.5569e-010 -1.99837e-011 4.69029e-010 10.2786 0.731801 0.0259123 -7.55694e-010 -1.99857e-011 4.69033e-010 2.22167 -0.733487 -0.20892 2.7835e-013 -1.41804e-013 2.60948e-013 -47.514 -17.2596 -3.59186 19.1857 -11.5467 -37.4634 5.26227 -51.5483 10.3911 -9.58438e-011 5.90756e-010 -5.6006e-010 -1.43462e-010 1.03163e-009 -9.69657e-010 -9.58504e-011 5.90757e-010 -5.60044e-010 -7.73091 5.47488 -0.417314 -9.58444e-011 5.90756e-010 -5.60063e-010 -2.90554 0.965183 -0.102902 -9.58499e-011 5.90755e-010 -5.6006e-010 -10.2786 0.731801 -0.0259123 -9.58383e-011 5.90756e-010 -5.6007e-010 -2.22167 -0.733487 0.20892 -2.03217e-016 0 -3.88251e-019 -7.4637 -45.0532 2.03307 -1.34371 63.3342 2.06514 -8.00942 -10.8262 -24.5163 2.03217e-016 0 3.88251e-019 -17.2284 -44.7158 -5.3729 0.056537 36.8149 -0.0944413 6.5333 -10.6816 30.3953 
29.64 79.7845 101.363 -6.70474 22.0339 32.616 -13.814 -22.6751 -13.3498 1.02136 0.763967 -3.07833 13.4805 -5.22826 11.5348 -15.2786 -2.5961 17.7964 -0 0 0 -0 0 0 2.62138e-013 1.964e-013 4.0576e-013 67.1333 -17.3688 -24.1959 -13.0793 -6.06862 23.9044 -0.482182 -18.8369 -2.75383 -1.55661e-009 2.09774e-009 5.6091e-010 -2.70389e-009 3.63602e-009 9.54413e-010 -1.55661e-009 2.09774e-009 5.60893e-010 7.73091 5.47488 0.417314 -1.55661e-009 2.09774e-009 5.6091e-010 2.90554 0.965183 0.102902 -1.5566e-009 2.09774e-009 5.60907e-010 10.2786 0.731801 0.0259123 -1.55661e-009 2.09774e-009 5.60914e-010 2.22167 -0.733487 -0.20892 2.62087e-013 1.96403e-013 4.0557e-013 -47.4215 -16.3162 -4.06991 19.0706 -11.4692 -37.1061 5.26077 -51.6569 10.4123 1.64482e-009 1.5783e-009 -2.31316e-009 2.92437e-009 2.72232e-009 -3.92451e-009 1.64481e-009 1.5783e-009 -2.31314e-009 -7.73091 5.47488 -0.417314 1.64482e-009 1.5783e-009 -2.31316e-009 -2.90554 0.965183 -0.102902 1.64481e-009 1.5783e-009 -2.31316e-009 -10.2786 0.731801 -0.0259123 1.64482e-009 1.5783e-009 -2.31317e-009 -2.22167 -0.733487 0.20892 -2.03217e-016 0 -3.88251e-019 -8.55628 -44.5107 -0.0430312 -1.25085 62.268 1.95873 -8.02789 -10.6767 -24.5483 2.03217e-016 0 3.88251e-019 -16.5261 -44.3511 -4.75211 0.0332418 35.903 -0.0749478 6.7042 -10.5978 31.327 
29.3975 79.9801 101.246 -5.40048 21.7401 29.1206 -12.8329 -22.3651 -12.1655 0.869338 0.723851 -2.80037 12.5687 -5.17023 10.8 -14.5607 -2.26051 16.6791 -0 0 0 -0 0 0 2.23648e-013 5.05881e-013 5.25649e-013 65.2181 -16.1638 -22.6719 -12.897 -6.03589 23.4299 -0.456179 -18.6464 -2.72036 -2.10663e-009 4.01162e-009 6.31072e-010 -3.66389e-009 6.95566e-009 1.07538e-009 -2.10662e-009 4.01162e-009 6.3106e-010 7.73091 5.47488 0.417314 -2.10663e-009 4.01162e-009 6.31072e-010 2.90554 0.965183 0.102902 -2.10662e-009 4.01162e-009 6.31072e-010 10.2786 0.731801 0.0259123 -2.10663e-009 4.01162e-009 6.31082e-010 2.22167 -0.733487 -0.20892 2.23581e-013 5.05884e-013 5.25481e-013 -45.9155 -14.6952 -4.50477 18.5962 -11.1927 -35.6022 4.68692 -50.2859 9.80383 3.26367e-009 2.34289e-009 -3.79618e-009 5.77187e-009 4.02501e-009 -6.41851e-009 3.26367e-009 2.34289e-009 -3.79616e-009 -7.73091 5.47488 -0.417314 3.26367e-009 2.34289e-009 -3.79618e-009 -2.90554 0.965183 -0.102902 3.26367e-009 2.34289e-009 -3.79618e-009 -10.2786 0.731801 -0.0259123 3.26367e-009 2.34289e-009 -3.79618e-009 -2.22167 -0.733487 0.20892 -2.03217e-016 0 -3.88251e-019 -9.50804 -42.6598 -2.32223 -1.00555 59.2004 1.69041 -7.65064 -10.1313 -23.8578 2.03217e-016 0 3.88251e-019 -15.2453 -42.9642 -3.80972 0.00923346 34.1791 -0.0603187 6.60992 -10.3875 31.4858 
